<svg width="466" height="117" viewBox="0 0 466 117" fill="none" xmlns="http://www.w3.org/2000/svg">
<path d="M109.893 69H90.8496V67.2861H95.9277V32.6279H90.8496V30.9141H112.051C115.436 30.9141 118.314 31.7181 120.684 33.3262C123.477 35.2305 124.873 37.7484 124.873 40.8799C124.873 41.8109 124.746 42.7207 124.492 43.6094C123.477 47.2064 120.747 49.6185 116.304 50.8457L126.079 67.3496H126.904C127.116 67.3496 127.327 67.3708 127.539 67.4131C128.216 67.54 128.555 68.069 128.555 69L117.383 69.0635L107.925 51.6074H104.814V67.2861H109.893V69ZM108.242 32.6279H104.814V49.7031H108.75C110.02 49.7031 111.141 49.3857 112.114 48.751C114.315 47.3545 115.415 44.8366 115.415 41.1973C115.415 40.0124 115.267 38.8698 114.971 37.7695C113.955 34.3418 111.712 32.6279 108.242 32.6279ZM139.155 55.2256C139.155 59.2035 139.409 62.1022 139.917 63.9219C140.679 66.6302 142.371 67.9844 144.995 67.9844C146.476 67.9844 147.682 67.54 148.613 66.6514C150.221 65.0433 151.025 61.1501 151.025 54.9717C151.025 51.1208 150.771 48.3066 150.264 46.5293C149.502 43.7786 147.767 42.4033 145.059 42.4033C143.451 42.4033 142.202 42.89 141.313 43.8633C139.875 45.5137 139.155 49.3011 139.155 55.2256ZM145.376 40.7529C149.015 40.7529 152.126 41.7474 154.707 43.7363C158.05 46.4023 159.722 50.1051 159.722 54.8447C159.722 58.3994 158.664 61.5309 156.548 64.2393C153.713 67.8363 149.798 69.6348 144.805 69.6348C141.165 69.6348 138.034 68.5345 135.41 66.334C132.109 63.541 130.459 59.7536 130.459 54.9717C130.459 51.5863 131.432 48.624 133.379 46.085C136.172 42.5303 140.171 40.7529 145.376 40.7529ZM169.878 79.1562C170.301 79.1562 170.745 79.0716 171.211 78.9023C173.073 78.2253 175.02 75.3688 177.051 70.333L164.673 43.292H162.007V41.7051H176.924V43.292H173.052L180.732 61.002L187.651 43.292H182.891V41.7051H192.729C192.729 41.9167 192.708 42.1283 192.666 42.3398C192.581 42.9746 192.074 43.292 191.143 43.292C190.465 43.3766 189.767 43.9902 189.048 45.1328L179.526 69.8252C178.722 71.9411 177.876 73.7396 176.987 75.2207C174.66 79.3255 171.719 81.3779 168.164 81.3779C166.598 81.3779 165.223 81.0605 164.038 80.4258C162.345 79.5371 161.499 78.3945 161.499 76.998C161.499 76.7018 161.541 76.3844 161.626 76.0459C162.049 74.734 163.022 74.0781 164.546 74.0781C165.265 74.0781 165.9 74.2686 166.45 74.6494C166.916 75.0303 167.445 75.9613 168.037 77.4424C168.503 78.585 169.116 79.1562 169.878 79.1562ZM217.358 69.6348C213.973 69.4232 211.836 67.4977 210.947 63.8584C210.736 64.4508 210.461 65.0221 210.122 65.5723C208.429 68.2806 205.785 69.6348 202.188 69.6348C201.003 69.6348 199.924 69.4867 198.95 69.1904C195.649 68.1325 193.999 65.7204 193.999 61.9541C194.041 56.4105 199.5 53.5329 210.376 53.3213V49.1953C210.376 47.9681 210.291 46.9102 210.122 46.0215C209.699 43.6094 208.493 42.4033 206.504 42.4033C205.911 42.4033 205.382 42.5091 204.917 42.7207C204.198 43.1439 203.605 44.2018 203.14 45.8945C202.97 46.487 202.843 46.9102 202.759 47.1641C202.124 48.9414 200.897 49.8301 199.077 49.8301C198.654 49.8301 198.252 49.7666 197.871 49.6396C196.305 49.2165 195.522 48.1797 195.522 46.5293C195.522 45.8099 195.713 45.1328 196.094 44.498C197.575 42.0013 201.193 40.7529 206.948 40.7529C208.429 40.7529 209.805 40.901 211.074 41.1973C215.983 42.4245 218.438 45.6829 218.438 50.9727V64.2393C218.438 66.2705 218.903 67.3285 219.834 67.4131C221.061 67.3708 221.802 65.8896 222.056 62.9697L223.706 63.0332C223.579 64.3451 223.389 65.4242 223.135 66.2705C222.373 68.5133 220.448 69.6348 217.358 69.6348ZM205.488 66.9053C205.785 66.9053 206.123 66.8418 206.504 66.7148C208.281 66.0378 209.572 64.2181 210.376 61.2559V55.0986C208.472 55.1833 206.906 55.416 205.679 55.7969C203.394 56.6432 202.251 58.4629 202.251 61.2559C202.293 64.9375 203.372 66.8206 205.488 66.9053ZM241.162 67.3496C241.416 67.3496 241.649 67.3708 241.86 67.4131C242.41 67.4977 242.686 68.0267 242.686 69H224.976V67.3496C226.16 67.3496 227.113 67.265 227.832 67.0957C229.229 66.7148 229.927 65.6569 229.927 63.9219V29.3906H224.976V27.7402H237.988V67.3496H241.162ZM290.801 39.4834C290.801 40.3298 290.653 41.1973 290.356 42.0859C289.299 45.0482 286.865 47.1429 283.057 48.3701C284.072 48.4971 285.046 48.6875 285.977 48.9414C291.097 50.2956 293.657 53.3213 293.657 58.0186C293.657 60.1344 293.022 62.0811 291.753 63.8584C289.172 67.2861 284.982 69 279.185 69H257.476V67.2861H262.554V32.6279H257.476V30.9141H278.042C280.369 30.9141 282.443 31.168 284.263 31.6758C288.621 32.9453 290.801 35.5479 290.801 39.4834ZM274.487 32.6279H271.44V47.4814H274.995C275.757 47.4814 276.476 47.3968 277.153 47.2275C280.116 46.3812 281.597 43.9691 281.597 39.9912C281.554 35.167 279.185 32.7126 274.487 32.6279ZM276.646 49.2588H271.44V67.2861H275.693C276.243 67.2861 276.794 67.2438 277.344 67.1592C281.745 66.5244 283.945 63.3294 283.945 57.5742C283.945 56.3047 283.755 55.1198 283.374 54.0195C282.274 50.8457 280.031 49.2588 276.646 49.2588ZM328.125 67.3496C328.421 67.3496 328.675 67.3708 328.887 67.4131C329.395 67.54 329.648 68.069 329.648 69H318.35L318.032 63.7949C317.905 64.0488 317.778 64.3027 317.651 64.5566C315.662 67.9421 312.764 69.6348 308.955 69.6348C302.988 69.5924 299.963 66.1436 299.878 59.2881V43.3555H296.196V41.7051H307.939V60.3672C307.939 60.9596 307.982 61.5309 308.066 62.0811C308.49 64.9163 309.907 66.334 312.319 66.334C312.954 66.334 313.589 66.1859 314.224 65.8896C316.34 64.8317 317.546 62.6523 317.842 59.3516L317.905 43.3555H314.795V41.7051H325.967V67.3496H328.125ZM348.057 67.3496C348.311 67.3496 348.543 67.3708 348.755 67.4131C349.305 67.4977 349.58 68.0267 349.58 69H331.87V67.3496C333.055 67.3496 334.007 67.265 334.727 67.0957C336.123 66.7148 336.821 65.6569 336.821 63.9219V29.3906H331.87V27.7402H344.883V67.3496H348.057ZM367.861 67.3496C368.115 67.3496 368.348 67.3708 368.56 67.4131C369.11 67.4977 369.385 68.0267 369.385 69H351.675V67.3496C352.86 67.3496 353.812 67.265 354.531 67.0957C355.928 66.7148 356.626 65.6569 356.626 63.9219V29.3906H351.675V27.7402H364.688V67.3496H367.861ZM386.206 67.3496C386.46 67.3496 386.693 67.3708 386.904 67.4131C387.454 67.4977 387.729 68.0267 387.729 69H372.114V67.3496C372.664 67.3496 373.151 67.3073 373.574 67.2227C375.055 66.9688 375.796 65.9108 375.796 64.0488V43.3555H372.114V41.7051H383.857V67.3496H386.206ZM384.429 33.3896C384.429 34.1937 384.217 34.9554 383.794 35.6748C382.905 37.2406 381.53 38.0234 379.668 38.0234C378.906 38.0234 378.166 37.833 377.446 37.4521C375.796 36.6058 374.971 35.2516 374.971 33.3896C374.971 32.5856 375.161 31.8239 375.542 31.1045C376.473 29.4541 377.848 28.6289 379.668 28.6289C380.472 28.6289 381.234 28.8405 381.953 29.2637C383.604 30.1523 384.429 31.5277 384.429 33.3896ZM399.6 55.2256C399.6 59.2035 399.854 62.1022 400.361 63.9219C401.123 66.6302 402.816 67.9844 405.439 67.9844C406.921 67.9844 408.127 67.54 409.058 66.6514C410.666 65.0433 411.47 61.1501 411.47 54.9717C411.47 51.1208 411.216 48.3066 410.708 46.5293C409.946 43.7786 408.211 42.4033 405.503 42.4033C403.895 42.4033 402.646 42.89 401.758 43.8633C400.319 45.5137 399.6 49.3011 399.6 55.2256ZM405.82 40.7529C409.46 40.7529 412.57 41.7474 415.151 43.7363C418.494 46.4023 420.166 50.1051 420.166 54.8447C420.166 58.3994 419.108 61.5309 416.992 64.2393C414.157 67.8363 410.243 69.6348 405.249 69.6348C401.61 69.6348 398.478 68.5345 395.854 66.334C392.554 63.541 390.903 59.7536 390.903 54.9717C390.903 51.5863 391.877 48.624 393.823 46.085C396.616 42.5303 400.615 40.7529 405.82 40.7529ZM436.67 67.3496C436.924 67.3496 437.157 67.3708 437.368 67.4131C437.918 67.4977 438.193 68.0267 438.193 69H423.34V67.3496C423.678 67.3496 423.996 67.3285 424.292 67.2861C426.112 67.0745 427.021 65.9954 427.021 64.0488V43.3555H423.34V41.7051H434.639L434.956 46.6562C435.337 45.8945 435.845 45.154 436.479 44.4346C438.638 41.9801 441.261 40.7529 444.351 40.7529C445.451 40.7529 446.509 40.9222 447.524 41.2607C451.248 42.5726 453.11 45.8522 453.11 51.0996V67.3496H455.205C455.459 67.3496 455.713 67.3708 455.967 67.4131C456.517 67.4977 456.792 68.0267 456.792 69H442.129V67.3496C442.721 67.3496 443.229 67.2861 443.652 67.1592C444.583 66.863 445.049 65.8262 445.049 64.0488V50.0205C445.049 49.4281 445.007 48.8568 444.922 48.3066C444.499 45.4714 443.081 44.0537 440.669 44.0537C440.034 44.0537 439.421 44.2018 438.828 44.498C436.67 45.556 435.443 47.7565 435.146 51.0996L435.083 67.3496H436.67Z" fill="white"/>
<path d="M239.047 102.523V108.197C238.99 108.22 238.625 108.345 237.953 108.573C237.292 108.801 236.444 109.023 235.407 109.239C234.37 109.456 233.253 109.564 232.057 109.564C230.097 109.564 228.36 109.228 226.845 108.556C225.329 107.872 224.048 106.949 223 105.787C221.963 104.625 221.177 103.309 220.641 101.839C220.106 100.358 219.838 98.8145 219.838 97.208C219.838 94.7926 220.351 92.6678 221.376 90.8335C222.401 88.9878 223.831 87.5465 225.666 86.5098C227.511 85.473 229.653 84.9546 232.091 84.9546C233.231 84.9546 234.319 85.0742 235.355 85.3135C236.404 85.5527 237.634 85.8888 239.047 86.3218V91.8076H236.945L236.432 88.6289C236.387 88.4352 236.301 88.2643 236.176 88.1162C236.05 87.9681 235.937 87.8713 235.834 87.8257L235.697 87.7573C235.401 87.6206 234.957 87.4497 234.364 87.2446C233.772 87.0282 233.071 86.9199 232.262 86.9199C230.679 86.9199 229.249 87.313 227.973 88.0991C226.708 88.8739 225.705 90.0246 224.965 91.5513C224.224 93.078 223.854 94.9635 223.854 97.208C223.854 100.466 224.64 103.019 226.212 104.864C227.785 106.71 229.955 107.633 232.724 107.633C233.544 107.633 234.21 107.536 234.723 107.342C235.236 107.149 235.509 107.046 235.543 107.035C235.908 106.898 236.13 106.664 236.21 106.334L237.013 102.523H239.047ZM257.641 109H252.462L252.001 106.932C252.001 106.932 251.824 107.057 251.471 107.308C251.129 107.559 250.674 107.849 250.104 108.18C249.534 108.51 248.902 108.801 248.207 109.051C247.523 109.302 246.84 109.427 246.156 109.427C244.892 109.427 243.815 109.006 242.926 108.163C242.049 107.319 241.61 106.163 241.61 104.693C241.61 104.044 241.724 103.44 241.952 102.882C242.191 102.324 242.659 101.794 243.354 101.292C244.06 100.78 245.102 100.284 246.481 99.8057C247.871 99.3158 249.711 98.8201 252.001 98.3188V96.8149C252.001 94.5135 250.913 93.3628 248.737 93.3628C248.133 93.3628 247.609 93.4198 247.165 93.5337C246.732 93.6476 246.43 93.7388 246.259 93.8071V96.8491H243.712C243.393 96.8491 243.097 96.7922 242.824 96.6782C242.55 96.5529 242.414 96.2738 242.414 95.8408C242.414 94.8838 242.778 94.1034 243.507 93.4995C244.236 92.8843 245.159 92.4342 246.276 92.1494C247.404 91.8532 248.543 91.7051 249.694 91.7051C251.141 91.7051 252.263 91.9329 253.061 92.3887C253.858 92.833 254.416 93.4539 254.735 94.2515C255.054 95.0376 255.214 95.9377 255.214 96.9517V106.761C255.214 106.978 255.282 107.154 255.419 107.291C255.567 107.428 255.744 107.507 255.949 107.53L257.641 107.633V109ZM252.001 105.702V99.6519C250.429 100.039 249.175 100.432 248.241 100.831C247.318 101.218 246.629 101.611 246.173 102.01C245.718 102.398 245.416 102.796 245.268 103.207C245.131 103.605 245.062 104.021 245.062 104.454C245.062 105.172 245.29 105.838 245.746 106.454C246.213 107.057 246.863 107.359 247.694 107.359C248.161 107.359 248.646 107.28 249.147 107.12C249.648 106.949 250.115 106.756 250.548 106.539C250.981 106.311 251.329 106.118 251.591 105.958C251.864 105.787 252.001 105.702 252.001 105.702ZM276.593 100.318C276.593 102.153 276.24 103.753 275.534 105.121C274.827 106.488 273.813 107.547 272.492 108.299C271.17 109.051 269.586 109.427 267.741 109.427C267.319 109.427 266.863 109.399 266.374 109.342C265.895 109.285 265.485 109.228 265.143 109.171C264.801 109.125 264.63 109.103 264.63 109.103V114.315C264.63 114.531 264.704 114.702 264.853 114.828C265.001 114.953 265.183 115.027 265.399 115.05L267.467 115.272V116.622H258.957V115.272L260.631 115.05C261.121 115.016 261.366 114.771 261.366 114.315V94.6104H258.957V93.4653L263.263 92.1323H264.63V93.8755C264.63 93.8755 264.773 93.7673 265.058 93.5508C265.354 93.3343 265.747 93.0837 266.237 92.7988C266.738 92.5026 267.302 92.2463 267.929 92.0298C268.567 91.8133 269.228 91.7051 269.911 91.7051C271.119 91.7051 272.224 92.064 273.227 92.7817C274.241 93.4881 275.055 94.485 275.67 95.7725C276.286 97.0599 276.593 98.5752 276.593 100.318ZM273.09 100.814C273.09 99.6063 272.902 98.5011 272.526 97.4985C272.161 96.4959 271.614 95.6927 270.885 95.0889C270.167 94.4736 269.273 94.166 268.202 94.166C267.621 94.166 267.057 94.2515 266.51 94.4224C265.963 94.5933 265.513 94.7699 265.16 94.9521C264.807 95.123 264.63 95.2085 264.63 95.2085V107.257C264.63 107.257 264.921 107.348 265.502 107.53C266.094 107.713 266.75 107.804 267.467 107.804C268.755 107.804 269.809 107.473 270.629 106.812C271.461 106.152 272.076 105.292 272.475 104.232C272.885 103.161 273.09 102.022 273.09 100.814ZM285.429 86.356C285.429 86.9484 285.224 87.4611 284.813 87.894C284.403 88.3156 283.902 88.5264 283.31 88.5264C282.717 88.5264 282.204 88.3156 281.771 87.894C281.35 87.4611 281.139 86.9484 281.139 86.356C281.139 85.7521 281.35 85.2451 281.771 84.835C282.204 84.4248 282.717 84.2197 283.31 84.2197C283.902 84.2197 284.403 84.4248 284.813 84.835C285.224 85.2451 285.429 85.7521 285.429 86.356ZM287.223 109H279.003V107.633L280.712 107.53C281.202 107.496 281.447 107.24 281.447 106.761V94.2686H279.037V93.0381L283.31 91.7051H284.694V106.761C284.694 106.978 284.762 107.154 284.899 107.291C285.047 107.428 285.224 107.507 285.429 107.53L287.223 107.633V109ZM300.092 106.864V108.265C300.092 108.265 299.87 108.362 299.425 108.556C298.992 108.749 298.417 108.943 297.699 109.137C296.993 109.33 296.218 109.427 295.375 109.427C294.065 109.427 293.108 109.12 292.504 108.504C291.911 107.878 291.615 106.875 291.615 105.497V93.8755H289.376V92.7305L291.769 91.6025L293.341 87.894H294.879V92.1323H299.818V93.8755H294.879V103.651C294.879 105.041 295.113 106.026 295.58 106.607C296.047 107.177 296.748 107.462 297.682 107.462C298.366 107.462 298.935 107.365 299.391 107.171C299.858 106.966 300.092 106.864 300.092 106.864ZM317.558 109H312.379L311.918 106.932C311.918 106.932 311.741 107.057 311.388 107.308C311.046 107.559 310.591 107.849 310.021 108.18C309.451 108.51 308.819 108.801 308.124 109.051C307.44 109.302 306.757 109.427 306.073 109.427C304.809 109.427 303.732 109.006 302.843 108.163C301.966 107.319 301.527 106.163 301.527 104.693C301.527 104.044 301.641 103.44 301.869 102.882C302.108 102.324 302.576 101.794 303.271 101.292C303.977 100.78 305.019 100.284 306.398 99.8057C307.788 99.3158 309.628 98.8201 311.918 98.3188V96.8149C311.918 94.5135 310.83 93.3628 308.654 93.3628C308.05 93.3628 307.526 93.4198 307.082 93.5337C306.649 93.6476 306.347 93.7388 306.176 93.8071V96.8491H303.629C303.31 96.8491 303.014 96.7922 302.741 96.6782C302.467 96.5529 302.331 96.2738 302.331 95.8408C302.331 94.8838 302.695 94.1034 303.424 93.4995C304.153 92.8843 305.076 92.4342 306.193 92.1494C307.321 91.8532 308.46 91.7051 309.611 91.7051C311.058 91.7051 312.18 91.9329 312.978 92.3887C313.775 92.833 314.333 93.4539 314.652 94.2515C314.971 95.0376 315.131 95.9377 315.131 96.9517V106.761C315.131 106.978 315.199 107.154 315.336 107.291C315.484 107.428 315.661 107.507 315.866 107.53L317.558 107.633V109ZM311.918 105.702V99.6519C310.346 100.039 309.092 100.432 308.158 100.831C307.235 101.218 306.546 101.611 306.09 102.01C305.635 102.398 305.333 102.796 305.185 103.207C305.048 103.605 304.979 104.021 304.979 104.454C304.979 105.172 305.207 105.838 305.663 106.454C306.13 107.057 306.78 107.359 307.611 107.359C308.078 107.359 308.563 107.28 309.064 107.12C309.565 106.949 310.032 106.756 310.465 106.539C310.898 106.311 311.246 106.118 311.508 105.958C311.781 105.787 311.918 105.702 311.918 105.702ZM327.589 109H319.079V107.633L320.941 107.53C321.101 107.53 321.266 107.445 321.437 107.274C321.619 107.103 321.71 106.944 321.71 106.795V85.7236H319.044V84.5615L323.522 83.2114H324.958V106.795C324.958 106.944 325.043 107.103 325.214 107.274C325.385 107.445 325.544 107.53 325.692 107.53L327.589 107.633V109Z" fill="#E0AE6E"/>
<path d="M0 19.2812V66.1924L11.599 55.0819V29.7745L50.6695 30.3918C52.2974 30.8033 55.5533 32.4905 55.5533 35.9471C55.5533 40.2678 51.2799 46.4404 48.2276 48.9094L56.7742 56.3164C75.699 30.3918 59.8266 19.2812 48.2276 19.2812H0Z" fill="white"/>
<path d="M31.2129 44.9844L0 77.1153H17.7485L31.2129 63.1717L47.7374 77.1153H64.2619L31.2129 44.9844Z" fill="white"/>
<path d="M68.543 28.7674C60.2195 17.5062 51.8145 16.3275 47.7344 17.1435L49.5704 1.22656L54.4666 11.0189L60.5868 1.22656V12.8549L70.379 3.06262L68.543 17.1435L77.1112 11.0189L73.4391 20.1991H80.7834C76.8664 22.6436 70.379 26.9284 68.543 28.7674Z" fill="#E0AE6E"/>
<circle cx="49.5704" cy="1.83605" r="1.83605" fill="#E0AE6E"/>
<circle cx="60.59" cy="1.83605" r="1.83605" fill="#E0AE6E"/>
<circle cx="70.3829" cy="3.06262" r="1.83605" fill="#E0AE6E"/>
<circle cx="76.5001" cy="11.6251" r="1.83605" fill="#E0AE6E"/>
<circle cx="79.5626" cy="20.1954" r="1.83605" fill="#E0AE6E"/>
</svg>
